<?xml version="1.0" encoding="iso-8859-1"?>
<!-- Uploaded to: SVG Repo, www.svgrepo.com, Generator: SVG Repo Mixer Tools -->
<svg fill="#fefefe" height="800px" width="800px" version="1.1" id="Layer_1" xmlns="http://www.w3.org/2000/svg" xmlns:xlink="http://www.w3.org/1999/xlink"
	 viewBox="0 0 512 512" xml:space="preserve">
<g>
	<g>
		<path d="M387.942,226.563c0-72.753-59.189-131.943-131.943-131.943c-27.422,0-53.716,8.335-76.04,24.103
			c-3.557,2.513-4.403,7.433-1.891,10.99c2.514,3.557,7.433,4.403,10.99,1.891c19.648-13.878,42.796-21.214,66.942-21.214
			c64.058,0,116.172,52.115,116.172,116.172c0,45.82-27.052,87.489-68.919,106.155c-2.843,1.268-4.674,4.089-4.674,7.202v23.842
			h-9.4V256.893h14.099c9.877,0,18.547-5.959,22.085-15.18c3.539-9.221,1.081-19.45-6.261-26.057l-6.214-5.593
			c-7.042-6.339-16.794-7.881-25.449-4.027c-8.655,3.855-14.031,12.134-14.031,21.609v13.478h-34.818v-13.478
			c0-9.475-5.377-17.754-14.031-21.609c-8.655-3.855-18.406-2.312-25.449,4.027l-6.213,5.593
			c-7.341,6.608-9.799,16.836-6.261,26.057c3.539,9.221,12.208,15.18,22.085,15.18h14.099v106.869h-9.401V339.92
			c0-3.113-1.831-5.935-4.674-7.202c-41.867-18.666-68.919-60.335-68.919-106.155c0-26.823,8.878-52.014,25.675-72.85
			c2.732-3.391,2.199-8.355-1.19-11.087c-3.39-2.731-8.354-2.199-11.087,1.19c-18.808,23.333-29.167,52.72-29.167,82.747
			c0,50.314,28.716,96.217,73.593,118.363v18.836h-17.347c-4.355,0-7.885,3.53-7.885,7.885v85.158
			c0,30.435,24.76,55.195,55.195,55.195h56.772c30.435,0,55.195-24.76,55.195-55.195v-22.078c0-4.355-3.53-7.885-7.885-7.885
			s-7.885,3.53-7.885,7.885v14.193H188.189v-27.335h114.07c4.355,0,7.885-3.53,7.885-7.885c0-4.355-3.53-7.885-7.885-7.885h-114.07
			v-26.283h135.622v13.142c0,4.355,3.53,7.885,7.885,7.885s7.885-3.53,7.885-7.885v-21.027c0-4.355-3.53-7.885-7.885-7.885h-17.347
			v-18.836C359.226,322.779,387.942,276.875,387.942,226.563z M289.179,227.644L289.179,227.644c0-4.751,3.58-6.714,4.677-7.203
			c1.098-0.488,4.952-1.836,8.482,1.341l6.214,5.593c3.737,3.364,2.542,7.498,2.087,8.686c-0.455,1.187-2.333,5.06-7.361,5.06
			h-14.099V227.644z M222.821,241.123h-14.099c-7.11,0-10.589-8.964-5.275-13.746l6.213-5.593
			c5.023-4.521,13.161-0.834,13.161,5.861V241.123z M323.018,464.69c-3.664,17.974-19.593,31.54-38.632,31.54h-56.772
			c-19.04,0-34.968-13.566-38.631-31.54H323.018z M273.409,363.762h-34.818V256.893h34.818V363.762z"/>
	</g>
</g>
<g>
	<g>
		<path d="M256,0c-4.355,0-7.885,3.53-7.885,7.885v44.156c0,4.355,3.53,7.885,7.885,7.885s7.885-3.53,7.885-7.885V7.885
			C263.885,3.53,260.355,0,256,0z"/>
	</g>
</g>
<g>
	<g>
		<path d="M174.517,71.762l-22.078-38.24c-2.177-3.771-7-5.064-10.771-2.886c-3.771,2.177-5.063,7-2.886,10.771l22.077,38.24
			c2.317,4.014,7.767,5.156,11.508,2.405C175.561,79.704,176.497,75.193,174.517,71.762z"/>
	</g>
</g>
<g>
	<g>
		<path d="M106.982,133.525l-38.24-22.078c-3.772-2.178-8.595-0.885-10.771,2.886c-2.177,3.771-0.885,8.594,2.886,10.771
			l38.24,22.078c4.022,2.323,9.308,0.572,11.168-3.671C111.857,139.88,110.412,135.504,106.982,133.525z"/>
	</g>
</g>
<g>
	<g>
		<path d="M79.376,220.78H35.22c-4.355,0-7.885,3.53-7.885,7.885c0,4.355,3.53,7.885,7.885,7.885h44.156
			c4.355,0,7.885-3.53,7.885-7.885C87.261,224.311,83.73,220.78,79.376,220.78z"/>
	</g>
</g>
<g>
	<g>
		<path d="M109.868,313.036c-2.177-3.771-7-5.064-10.771-2.887l-38.24,22.078c-3.43,1.98-4.875,6.355-3.283,9.987
			c1.86,4.243,7.146,5.995,11.168,3.671l38.24-22.078C110.753,321.63,112.045,316.807,109.868,313.036z"/>
	</g>
</g>
<g>
	<g>
		<path d="M451.143,332.227l-38.24-22.078c-3.772-2.178-8.594-0.885-10.771,2.886c-2.177,3.771-0.885,8.594,2.886,10.771
			l38.24,22.078c4.022,2.323,9.309,0.572,11.168-3.671C456.019,338.582,454.574,334.207,451.143,332.227z"/>
	</g>
</g>
<g>
	<g>
		<path d="M476.78,220.78h-44.156c-4.355,0-7.885,3.53-7.885,7.885c0,4.355,3.53,7.885,7.885,7.885h44.156
			c4.355,0,7.885-3.53,7.885-7.885C484.665,224.311,481.135,220.78,476.78,220.78z"/>
	</g>
</g>
<g>
	<g>
		<path d="M454.029,114.333c-2.177-3.771-7-5.063-10.771-2.886l-38.24,22.078c-3.771,2.177-5.063,7-2.886,10.771
			c1.46,2.529,4.111,3.944,6.836,3.944c1.337,0,2.694-0.341,3.935-1.058l38.24-22.078
			C454.915,122.926,456.207,118.104,454.029,114.333z"/>
	</g>
</g>
<g>
	<g>
		<path d="M370.333,30.636c-3.771-2.178-8.594-0.885-10.771,2.886l-22.078,38.24c-2.177,3.771-0.885,8.594,2.886,10.771
			c3.725,2.151,8.624,0.833,10.771-2.886l22.078-38.24C375.396,37.636,374.104,32.813,370.333,30.636z"/>
	</g>
</g>
</svg>